REM DIRINDEX 1\2\6,1\2\7,1\2\8,1\2\9,1\3\10,1\3\11,1\4\12,1\4\13,1\4\14,1\5\15,1\5\16,1\5\17
REM DIRNAME folder01,folder02,folder03,folder04,folder05,folder06,folder07,folder08,folder09,folder10,folder11,folder12,folder13,folder14,folder15,folder16,folder17
TITLE ""
FILE "1900_3_099 sec17_1656_1674.mp3" MP3
  TRACK 01 AUDIO
    TITLE "0:"
    INDEX 01 00:00:00
  TRACK 02 AUDIO
    TITLE "17:cjc020_9296"
    INDEX 01 00:00:13
  TRACK 03 AUDIO
    TITLE "0:"
    INDEX 01 00:01:71
  TRACK 04 AUDIO
    TITLE "16:cjc020_9297"
    INDEX 01 00:02:08
  TRACK 05 AUDIO
    TITLE "0:"
    INDEX 01 00:03:06
  TRACK 06 AUDIO
    TITLE "17:cjc020_9298"
    INDEX 01 00:03:64
  TRACK 07 AUDIO
    TITLE "0:"
    INDEX 01 00:05:18
  TRACK 08 AUDIO
    TITLE "16:cjc020_9299"
    INDEX 01 00:05:20
  TRACK 09 AUDIO
    TITLE "0:"
    INDEX 01 00:06:39
  TRACK 10 AUDIO
    TITLE "17:cjc020_9300"
    INDEX 01 00:07:17
  TRACK 11 AUDIO
    TITLE "0:"
    INDEX 01 00:08:19
  TRACK 12 AUDIO
    TITLE "16:cjc020_9301"
    INDEX 01 00:08:26
  TRACK 13 AUDIO
    TITLE "0:"
    INDEX 01 00:09:30
  TRACK 14 AUDIO
    TITLE "17:cjc020_9302"
    INDEX 01 00:10:14
  TRACK 15 AUDIO
    TITLE "0:"
    INDEX 01 00:11:42
  TRACK 16 AUDIO
    TITLE "16:cjc020_9303"
    INDEX 01 00:11:46
  TRACK 17 AUDIO
    TITLE "0:"
    INDEX 01 00:12:42
  TRACK 18 AUDIO
    TITLE "17:cjc020_9304"
    INDEX 01 00:13:24
  TRACK 19 AUDIO
    TITLE "0:"
    INDEX 01 00:14:31
  TRACK 20 AUDIO
    TITLE "16:cjc020_9305"
    INDEX 01 00:14:33
  TRACK 21 AUDIO
    TITLE "0:"
    INDEX 01 00:15:32
  TRACK 22 AUDIO
    TITLE "17:cjc020_9306"
    INDEX 01 00:16:18
  TRACK 23 AUDIO
    TITLE "0:"
    INDEX 01 00:17:29
  TRACK 24 AUDIO
    TITLE "16:cjc020_9307"
    INDEX 01 00:17:33
  TRACK 25 AUDIO
    TITLE "0:"
    INDEX 01 00:18:62
  TRACK 26 AUDIO
    TITLE "17:cjc020_9308"
    INDEX 01 00:19:46
  TRACK 27 AUDIO
    TITLE "0:"
    INDEX 01 00:20:53
  TRACK 28 AUDIO
    TITLE "16:cjc020_9309"
    INDEX 01 00:20:61
  TRACK 29 AUDIO
    TITLE "0:"
    INDEX 01 00:21:60
  TRACK 30 AUDIO
    TITLE "17:cjc020_9310"
    INDEX 01 00:22:46
  TRACK 31 AUDIO
    TITLE "0:"
    INDEX 01 00:23:61
  TRACK 32 AUDIO
    TITLE "16:cjc020_9311"
    INDEX 01 00:23:67
  TRACK 33 AUDIO
    TITLE "0:"
    INDEX 01 00:24:63
  TRACK 34 AUDIO
    TITLE "17:cjc020_9312"
    INDEX 01 00:25:48
  TRACK 35 AUDIO
    TITLE "0:"
    INDEX 01 00:26:58
  TRACK 36 AUDIO
    TITLE "16:cjc020_9313"
    INDEX 01 00:26:62
  TRACK 37 AUDIO
    TITLE "0:"
    INDEX 01 00:28:02
  TRACK 38 AUDIO
    TITLE "17:cjc020_9314"
    INDEX 01 00:28:59
  TRACK 39 AUDIO
    TITLE "0:"
    INDEX 01 00:29:72
  TRACK 40 AUDIO
    TITLE "16:cjc020_9315"
    INDEX 01 00:30:05
  TRACK 41 AUDIO
    TITLE "0:"
    INDEX 01 00:31:18
  TRACK 42 AUDIO
    TITLE "17:cjc020_9316"
    INDEX 01 00:32:03
  TRACK 43 AUDIO
    TITLE "0:"
    INDEX 01 00:33:24
  TRACK 44 AUDIO
    TITLE "16:cjc020_9317"
    INDEX 01 00:33:26
  TRACK 45 AUDIO
    TITLE "0:"
    INDEX 01 00:34:42
  TRACK 46 AUDIO
    TITLE "17:cjc020_9318"
    INDEX 01 00:35:25
  TRACK 47 AUDIO
    TITLE "0:"
    INDEX 01 00:37:67
  TRACK 48 AUDIO
    TITLE "16:cjc020_9319"
    INDEX 01 00:37:69
  TRACK 49 AUDIO
    TITLE "0:"
    INDEX 01 00:39:05
  TRACK 50 AUDIO
    TITLE "17:cjc020_9320"
    INDEX 01 00:39:64
  TRACK 51 AUDIO
    TITLE "0:"
    INDEX 01 00:40:50
  TRACK 52 AUDIO
    TITLE "16:cjc020_9321"
    INDEX 01 00:40:58
  TRACK 53 AUDIO
    TITLE "0:"
    INDEX 01 00:41:63
  TRACK 54 AUDIO
    TITLE "17:cjc020_9322"
    INDEX 01 00:42:45
  TRACK 55 AUDIO
    TITLE "0:"
    INDEX 01 00:43:66
  TRACK 56 AUDIO
    TITLE "16:cjc020_9323"
    INDEX 01 00:43:68
  TRACK 57 AUDIO
    TITLE "0:"
    INDEX 01 00:45:04
  TRACK 58 AUDIO
    TITLE "17:cjc020_9324"
    INDEX 01 00:45:63
  TRACK 59 AUDIO
    TITLE "0:"
    INDEX 01 00:47:01
  TRACK 60 AUDIO
    TITLE "16:cjc020_9325"
    INDEX 01 00:47:05
  TRACK 61 AUDIO
    TITLE "0:"
    INDEX 01 00:48:16
  TRACK 62 AUDIO
    TITLE "17:cjc020_9326"
    INDEX 01 00:49:00
  TRACK 63 AUDIO
    TITLE "0:"
    INDEX 01 00:51:73
  TRACK 64 AUDIO
    TITLE "16:cjc020_9327"
    INDEX 01 00:52:04
  TRACK 65 AUDIO
    TITLE "0:"
    INDEX 01 00:53:00
  TRACK 66 AUDIO
    TITLE "17:cjc020_9328"
    INDEX 01 00:53:62
  TRACK 67 AUDIO
    TITLE "0:"
    INDEX 01 00:55:03
  TRACK 68 AUDIO
    TITLE "16:cjc020_9329"
    INDEX 01 00:55:08
  TRACK 69 AUDIO
    TITLE "0:"
    INDEX 01 00:56:25
  TRACK 70 AUDIO
    TITLE "17:cjc020_9330"
    INDEX 01 00:57:09
  TRACK 71 AUDIO
    TITLE "0:"
    INDEX 01 00:58:26
  TRACK 72 AUDIO
    TITLE "16:cjc020_9331"
    INDEX 01 00:58:28
  TRACK 73 AUDIO
    TITLE "0:"
    INDEX 01 00:59:34
  TRACK 74 AUDIO
    TITLE "17:cjc020_9332"
    INDEX 01 01:00:12
  TRACK 75 AUDIO
    TITLE "0:"
    INDEX 01 01:02:03
  TRACK 76 AUDIO
    TITLE "16:cjc020_9333"
    INDEX 01 01:02:10
  TRACK 77 AUDIO
    TITLE "0:"
    INDEX 01 01:03:14
